IKResults
version=1
nRows=13
nColumns=40
inDegrees=yes

Units are S.I. units (second, meters, Newtons, ...)
Angles are in degrees.

endheader
time	pelvis_tilt	pelvis_list	pelvis_rotation	pelvis_tx	pelvis_ty	pelvis_tz	hip_flexion_r	hip_adduction_r	hip_rotation_r	knee_angle_r	knee_angle_r_beta	ankle_angle_r	subtalar_angle_r	mtp_angle_r	hip_flexion_l	hip_adduction_l	hip_rotation_l	knee_angle_l	knee_angle_l_beta	ankle_angle_l	subtalar_angle_l	mtp_angle_l	lumbar_extension	lumbar_bending	lumbar_rotation	arm_flex_r	arm_add_r	arm_rot_r	elbow_flex_r	pro_sup_r	wrist_flex_r	wrist_dev_r	arm_flex_l	arm_add_l	arm_rot_l	elbow_flex_l	pro_sup_l	wrist_flex_l	wrist_dev_l
      0.83000000	     17.19130647	      0.74906367	      2.14743268	     -0.73889075	      0.94841962	      1.06940211	    -22.48464461	      3.23344394	     -8.54752353	    -12.01594441	     -0.20971779	     11.11302063	     -1.72343444	     -2.62538665	     -4.85318130	      2.42953824	      8.86628725	    -31.61826973	     -0.55184291	     15.23730155	     17.08509327	      8.52065568	    -24.28240583	     -0.42546270	      0.58305095	      1.41035449	    -10.08011170	      5.82115005	     22.56211609	     89.95437384	      0.00000000	      0.00000000	      1.87923132	      7.47852762	     17.12639230	     16.82665893	     89.95437384	      0.00000000	      0.00000000
      0.84000000	     17.18307628	      1.08285096	      1.97562175	     -0.73430659	      0.94825641	      1.06948236	    -22.74707126	      2.77276444	     -8.87895987	    -12.13848843	     -0.21185659	     11.44560123	     -1.12836323	     -2.65400865	     -4.03909675	      2.02953924	      8.96049334	    -30.72265663	     -0.53621151	     14.75804208	     16.74409052	      7.46707854	    -24.31262552	     -0.85671925	      0.86078085	      1.80243169	    -10.12283226	      5.67448073	     22.46526404	     89.95437384	      0.00000000	      0.00000000	      1.34281853	      7.61329131	     15.81450929	     16.69905384	     89.95437384	      0.00000000	      0.00000000
      0.85000000	     17.15617298	      1.33136649	      1.77266619	     -0.72994161	      0.94807233	      1.06972886	    -23.01772047	      2.45437929	     -8.71714264	    -12.16243704	     -0.21227457	     11.55562565	     -1.16457322	     -2.69847545	     -3.25791772	      1.81014514	      9.36296461	    -29.74053864	     -0.51907032	     14.05201023	     15.92666070	      7.10188428	    -24.34924538	     -1.22698387	      1.17224272	      2.19688005	    -10.19025340	      5.63206041	     22.47072244	     89.95437384	      0.00000000	      0.00000000	      0.80754003	      7.76611217	     14.32532432	     16.67633276	     89.95437384	      0.00000000	      0.00000000
      0.86000000	     17.09440373	      1.45340245	      1.56080902	     -0.72539189	      0.94770291	      1.07003223	    -23.25780784	      2.25381470	     -8.62324969	    -12.16905089	     -0.21239000	     11.70520206	     -1.08685725	     -2.74441770	     -2.40717799	      1.79839746	     10.31539525	    -28.73782301	     -0.50156963	     13.39491031	     15.18196417	      6.62873173	    -24.30039805	     -1.48301683	      1.56229065	      2.59311096	    -10.26914390	      5.60808569	     22.39514890	     89.95437384	      0.00000000	      0.00000000	      0.25041903	      7.91358651	     12.88893663	     16.68221888	     89.95437384	      0.00000000	      0.00000000
      0.87000000	     17.14027221	      1.61221135	      1.24840692	     -0.72073279	      0.94750600	      1.07036355	    -23.62680164	      1.97620200	     -8.42953818	    -12.15238211	     -0.21209908	     11.79556700	     -1.05237348	     -2.79163922	     -1.82120784	      1.71236141	     11.01337132	    -27.65181134	     -0.48261515	     12.51641270	     14.12168002	      5.84632040	    -24.36208366	     -1.79580267	      2.02754517	      2.87734695	    -10.40577123	      5.55713256	     22.55660013	     89.95437384	      0.00000000	      0.00000000	     -0.42635328	      8.12648022	     10.87703778	     16.95581015	     89.95437384	      0.00000000	      0.00000000
      0.88000000	     17.00096211	      1.66142934	      1.01644981	     -0.71635498	      0.94707731	      1.07079818	    -23.72425182	      1.81938712	     -8.50703124	    -12.21719692	     -0.21323031	     11.93765594	     -0.75518844	     -2.86547469	     -0.93370721	      1.75511357	     11.37252596	    -26.84598789	     -0.46855088	     11.52430439	     12.97073109	      5.27176186	    -24.25864736	     -2.00745343	      2.39628963	      3.33575911	    -10.45226950	      5.51636460	     22.46594433	     89.95437384	      0.00000000	      0.00000000	     -1.00262684	      8.33138470	      9.22964553	     17.05733058	     89.95437384	      0.00000000	      0.00000000
      0.89000000	     17.06765703	      1.74536762	      0.59294952	     -0.71151715	      0.94679243	      1.07108398	    -24.05642971	      1.54549296	     -8.35664874	    -12.32348170	     -0.21508533	     12.10131304	     -0.54677757	     -2.98108443	     -0.52608079	      1.76293260	     12.61453648	    -25.52628622	     -0.44551774	     11.08811855	     11.81822663	      4.42156599	    -24.31648994	     -2.26895541	      2.97712411	      3.59121847	    -10.64708464	      5.48648438	     22.70246382	     89.95437384	      0.00000000	      0.00000000	     -1.76524363	      8.52678419	      7.20061815	     17.57161944	     89.95437384	      0.00000000	      0.00000000
      0.90000000	     17.05065309	      1.76284713	      0.34882315	     -0.70689771	      0.94641118	      1.07138622	    -24.30685612	      1.44322996	     -8.17967563	    -12.38670027	     -0.21618870	     12.15961682	     -0.43511574	     -3.16844596	      0.09303407	      1.93287537	     13.49595360	    -24.61786011	     -0.42966271	     10.46605554	     10.10052487	      2.79550675	    -24.31873952	     -2.44217509	      3.36824779	      3.89127212	    -10.77439106	      5.46401980	     22.92750406	     89.95437384	      0.00000000	      0.00000000	     -2.42047804	      8.78103341	      5.33118584	     17.82466002	     89.95437384	      0.00000000	      0.00000000
      0.91000000	     17.06219629	      1.67224638	     -0.03302030	     -0.70205428	      0.94597705	      1.07182252	    -24.62685286	      1.42250100	     -7.72805848	    -12.36761921	     -0.21585568	     12.15577577	     -0.90799346	     -3.40696658	      0.57859170	      2.22328937	     14.77733992	    -23.52697333	     -0.41062315	      9.88435352	      8.63349207	     -1.53946817	    -24.30482567	     -2.54283563	      3.93082963	      4.19663368	    -10.94077792	      5.46990307	     23.08565573	     89.95437384	      0.00000000	      0.00000000	     -3.08205583	      8.91915919	      3.99585658	     18.12038091	     89.95437384	      0.00000000	      0.00000000
      0.92000000	     16.97667107	      1.78468519	     -0.28520286	     -0.69733119	      0.94545911	      1.07176555	    -24.77790176	      1.17104129	     -7.67101868	    -12.52099263	     -0.21853255	     12.32615640	     -0.74392084	     -3.42560479	      1.06892452	      2.06428550	     15.28177049	    -22.27717537	     -0.38881006	      9.61240682	      7.73581632	     -1.70959734	    -24.22586599	     -2.79016946	      4.22058619	      4.60012898	    -11.05562632	      5.49835735	     23.15641351	     89.95437384	      0.00000000	      0.00000000	     -3.69232592	      9.00333594	      3.24625704	     18.22123066	     89.95437384	      0.00000000	      0.00000000
      0.93000000	     16.70389730	      1.67772646	     -0.29062586	     -0.69280642	      0.94451148	      1.07147859	    -24.66931221	      1.23874010	     -7.90308976	    -12.75948338	     -0.22269500	     12.51193763	     -0.76992292	     -3.40894649	      2.06263129	      2.21035074	     15.63841871	    -21.64574186	     -0.37778946	      9.55713657	      7.42029220	     -1.69957286	    -23.98604333	     -2.72669378	      4.36576126	      4.92148717	    -11.20830746	      5.49794509	     23.41202992	     89.95437384	      0.00000000	      0.00000000	     -4.21725690	      8.95193393	      2.94794377	     18.17439591	     89.95437384	      0.00000000	      0.00000000
      0.94000000	     17.23475267	      2.04331401	     -1.10568507	     -0.68720556	      0.94486406	      1.07186876	    -25.59412926	      0.46657574	     -7.52792911	    -12.75579382	     -0.22263060	     12.57469977	     -0.38057929	     -3.51094643	      1.38720571	      1.84747974	     17.54105698	    -19.81763868	     -0.34588304	      8.59882143	      4.94376275	     -2.32260189	    -24.43025275	     -3.41676224	      5.09756066	      5.02873266	    -11.48549456	      5.74424880	     23.94031590	     89.95437384	      0.00000000	      0.00000000	     -5.00144962	      9.26108466	      0.92296678	     18.54849077	     89.95437384	      0.00000000	      0.00000000
      0.95000000	     17.26700417	      2.05523118	     -1.43742142	     -0.68208422	      0.94432452	      1.07185872	    -25.87088696	      0.25247655	     -7.48642551	    -12.93885337	     -0.22582559	     12.70654782	     -0.08118696	     -3.63138465	      1.74093589	      1.94969373	     18.92616761	    -18.91474514	     -0.33012458	      8.07437196	      2.95214471	     -3.13526914	    -24.42711763	     -3.58886065	      5.54315972	      5.22319449	    -11.63413828	      5.53565408	     24.30048437	     89.95437384	      0.00000000	      0.00000000	     -5.61295909	      9.39560155	     -0.14243022	     18.59922766	     89.95437384	      0.00000000	      0.00000000
